<svg width="71" height="72" viewBox="0 0 71 72" fill="none" xmlns="http://www.w3.org/2000/svg">
<path d="M19.5625 24.7151C20.7914 23.3622 22.8031 22.0801 25.7604 22.0801C29.8404 22.0801 32.4683 24.8851 33.3927 27.9628C34.2887 30.9626 33.7469 34.6742 31.1969 37.2349C30.3124 38.0851 29.3743 38.8777 28.3883 39.6078L28.2467 39.7176C27.255 40.4826 26.3696 41.1767 25.5904 41.9488C24.6873 42.8555 23.9471 43.8436 23.5185 45.1009H31.0729C31.7774 45.1009 32.453 45.3808 32.9512 45.8789C33.4493 46.3771 33.7292 47.0527 33.7292 47.7572C33.7292 48.4616 33.4493 49.1373 32.9512 49.6354C32.453 50.1336 31.7774 50.4134 31.0729 50.4134H20.4479C19.7434 50.4134 19.0678 50.1336 18.5697 49.6354C18.0715 49.1373 17.7917 48.4616 17.7917 47.7572C17.7917 43.3407 19.6475 40.3799 21.8433 38.1911C22.8917 37.1428 24.0321 36.2609 24.9954 35.5136L25.006 35.5065C26.0189 34.7238 26.8052 34.1147 27.4321 33.4878C28.3954 32.5174 28.7319 30.9201 28.3033 29.4857C27.896 28.1363 26.9929 27.3926 25.7604 27.3926C24.5102 27.3926 23.8656 27.8778 23.4937 28.2886C23.2762 28.5287 23.0991 28.8027 22.9696 29.0997V29.1103C22.7526 29.781 22.2781 30.338 21.6504 30.6588C21.0228 30.9796 20.2934 31.0379 19.6227 30.8209C18.952 30.6039 18.395 30.1294 18.0742 29.5018C17.7534 28.8741 17.6951 28.1447 17.9121 27.474L18.036 27.134C18.3999 26.2457 18.9152 25.4272 19.5589 24.7151H19.5625Z" fill="white"/>
<path d="M39.9271 22.0801C40.6315 22.0801 41.3072 22.3599 41.8053 22.8581C42.3035 23.3562 42.5833 24.0318 42.5833 24.7363V34.4759H47.8958V24.7363C47.8958 24.0318 48.1757 23.3562 48.6738 22.8581C49.172 22.3599 49.8476 22.0801 50.5521 22.0801C51.2565 22.0801 51.9322 22.3599 52.4303 22.8581C52.9285 23.3562 53.2083 24.0318 53.2083 24.7363V47.6509C53.2083 48.3554 52.9285 49.031 52.4303 49.5292C51.9322 50.0273 51.2565 50.3072 50.5521 50.3072C49.8476 50.3072 49.172 50.0273 48.6738 49.5292C48.1757 49.031 47.8958 48.3554 47.8958 47.6509V39.7884H39.9271C39.2226 39.7884 38.547 39.5086 38.0488 39.0104C37.5507 38.5123 37.2708 37.8366 37.2708 37.1322V24.7363C37.2708 24.0318 37.5507 23.3562 38.0488 22.8581C38.547 22.3599 39.2226 22.0801 39.9271 22.0801Z" fill="white"/>
<path d="M70.9166 36.2467C70.9166 16.6861 55.0606 0.830078 35.5 0.830078C15.9394 0.830078 0.083313 16.6861 0.083313 36.2467C0.083313 55.8074 15.9394 71.6634 35.5 71.6634C55.0606 71.6634 70.9166 55.8074 70.9166 36.2467ZM5.39581 36.2467C5.39581 28.2626 8.56749 20.6055 14.2131 14.9599C19.8587 9.31426 27.5159 6.14258 35.5 6.14258C43.4841 6.14258 51.1412 9.31426 56.7868 14.9599C62.4325 20.6055 65.6041 28.2626 65.6041 36.2467C65.6041 44.2309 62.4325 51.888 56.7868 57.5336C51.1412 63.1792 43.4841 66.3509 35.5 66.3509C27.5159 66.3509 19.8587 63.1792 14.2131 57.5336C8.56749 51.888 5.39581 44.2309 5.39581 36.2467Z" fill="white"/>
</svg>
