<svg width="70" height="62" viewBox="0 0 70 62" fill="none" xmlns="http://www.w3.org/2000/svg">
<path d="M1.17188 23.4315H21.1719C21.5156 23.4315 21.7969 23.7128 21.7969 24.0565V27.8065C21.7969 28.1503 21.5156 28.4315 21.1719 28.4315H1.17188C0.828125 28.4315 0.546875 28.1503 0.546875 27.8065V24.0565C0.546875 23.7128 0.828125 23.4315 1.17188 23.4315ZM11.6406 34.0565H21.1719C21.5156 34.0565 21.7969 34.3378 21.7969 34.6815V38.4315C21.7969 38.7753 21.5156 39.0565 21.1719 39.0565H11.6406C11.2969 39.0565 11.0156 38.7753 11.0156 38.4315V34.6815C11.0156 34.3378 11.2969 34.0565 11.6406 34.0565ZM37.7109 16.4393H41.0937C41.5781 16.4393 41.9688 16.83 41.9688 17.3143V36.6893C41.9688 36.9706 41.8359 37.2284 41.6094 37.3925L29.9766 45.8768C29.5859 46.1581 29.0391 46.08 28.7578 45.6893L26.75 42.9471V42.9393C26.4688 42.5487 26.5547 42.0018 26.9453 41.7206L36.8437 34.5643V17.3143C36.8359 16.83 37.2344 16.4393 37.7109 16.4393Z" fill="white"/>
<path d="M12.1249 43.8924H16.6406C17.0781 43.8924 17.4921 44.1189 17.7265 44.4939C18.7187 46.0643 19.8749 47.5174 21.2031 48.8455C23.4921 51.1346 26.1562 52.9314 29.1171 54.1814C32.1874 55.4783 35.4453 56.1346 38.8046 56.1346C42.1718 56.1346 45.4296 55.4783 48.4921 54.1814C51.4531 52.9314 54.1171 51.1346 56.4062 48.8455C58.6953 46.5565 60.4921 43.8924 61.7421 40.9314C63.039 37.869 63.6953 34.6111 63.6953 31.244C63.6953 27.8768 63.039 24.6268 61.7421 21.5565C60.4921 18.5955 58.6953 15.9315 56.4062 13.6424C54.1171 11.3533 51.4531 9.55646 48.4921 8.30646C45.4296 7.00958 42.164 6.35333 38.8046 6.35333C35.4374 6.35333 32.1796 7.00958 29.1171 8.30646C26.1562 9.55646 23.4921 11.3533 21.2031 13.6424C19.8749 14.9705 18.7187 16.4236 17.7265 17.994C17.4921 18.369 17.0781 18.5955 16.6406 18.5955H12.1249C11.5859 18.5955 11.2421 18.033 11.4843 17.5565C16.5781 7.42365 26.9062 0.83771 38.4374 0.704898C55.3203 0.49396 69.3437 14.3143 69.3749 31.1815C69.4062 48.0799 55.7109 61.7908 38.8124 61.7908C27.1328 61.7908 16.6327 55.1814 11.4843 44.9314C11.2421 44.4549 11.5937 43.8924 12.1249 43.8924Z" fill="white"/>
</svg>
