<svg width="19" height="22" viewBox="0 0 19 22" fill="none" xmlns="http://www.w3.org/2000/svg">
<path d="M1.16416 3.75705L3.5068 1.0836C3.67205 0.894008 3.86847 0.743578 4.08477 0.640953C4.30107 0.538328 4.53299 0.485532 4.7672 0.485596C5.24453 0.485596 5.69326 0.69917 6.02981 1.0836L8.55062 3.96308C8.7166 4.15185 8.84829 4.37621 8.93813 4.62329C9.02798 4.87036 9.0742 5.13528 9.07414 5.40282C9.07414 5.94806 8.88717 6.46064 8.55062 6.84507L6.7073 8.95066C7.13878 10.037 7.73868 11.0253 8.47803 11.8678C9.21553 12.7144 10.0806 13.4022 11.0318 13.898L12.8752 11.7925C13.0404 11.6029 13.2368 11.4524 13.4531 11.3498C13.6694 11.2472 13.9013 11.1944 14.1356 11.1944C14.6129 11.1944 15.0616 11.408 15.3982 11.7925L17.9212 14.6694C18.0874 14.8585 18.2192 15.0833 18.309 15.3308C18.3989 15.5783 18.445 15.8437 18.4447 16.1117C18.4447 16.6569 18.2577 17.1695 17.9212 17.5539L15.5829 20.2249C15.0462 20.8404 14.3049 21.1897 13.5439 21.1897C13.3833 21.1897 13.2293 21.1746 13.0775 21.1445C10.1124 20.5867 7.17143 18.7851 4.798 16.0765C2.42676 13.3704 0.851803 10.0135 0.35688 6.61642C0.207302 5.57871 0.508657 4.51084 1.16416 3.75705Z" fill="#E12200"/>
</svg>
