<svg width="58" height="72" viewBox="0 0 58 72" fill="none" xmlns="http://www.w3.org/2000/svg">
<path d="M15.3827 35.2137L15.4172 35.3045C15.4064 35.2771 15.3978 35.249 15.387 35.2217L15.3827 35.2137Z" fill="white"/>
<path d="M28.9985 0C40.8627 0 50.6 9.7056 50.6 21.5438C50.6 26.1317 49.1312 30.407 46.6544 33.9091L46.7429 33.7709L32.9146 57.6734L32.8448 57.7649C32.2875 58.4921 31.736 59.0782 31.0685 59.5195C30.4011 59.9609 29.5465 60.2395 28.7069 60.1553C27.0293 59.9868 26.0545 58.8276 25.1537 57.6065L25.0976 57.5309L9.85229 31.5864L9.84005 31.5648C9.47501 30.906 9.21077 30.2414 8.98469 29.5978C7.93917 27.0413 7.40094 24.3058 7.39997 21.5438C7.39997 9.7056 17.1344 0 28.9985 0ZM28.9985 3.6C19.0957 3.6 11 11.677 11 21.5438C10.9993 23.8485 11.4494 26.131 12.3248 28.2629L12.3428 28.3075L12.3586 28.3543C12.548 28.8994 12.7539 29.394 12.9915 29.8231L28.082 55.5026C28.7494 56.3818 29.216 56.5898 29.0662 56.574C28.9892 56.5668 28.9179 56.6273 29.0828 56.5178C29.2405 56.4134 29.5623 56.1074 29.9439 55.6207L43.6664 31.896L43.7146 31.829C45.7832 28.9058 47 25.3656 47 21.5438C47 11.6777 38.9014 3.6 28.9985 3.6ZM28.9985 9.252C35.8112 9.252 41.3213 14.7427 41.3213 21.5438C41.3213 28.345 35.8105 33.8357 28.9985 33.8357C22.1866 33.8357 16.6786 28.3442 16.6786 21.5438C16.6786 14.7427 22.1866 9.252 28.9985 9.252ZM28.9985 12.852C24.0903 12.852 20.2786 16.6572 20.2786 21.5438C20.2786 26.4305 24.0896 30.2357 28.9985 30.2357C33.9075 30.2357 37.7213 26.4298 37.7213 21.5438C37.7213 16.6572 33.9068 12.852 28.9985 12.852Z" fill="white"/>
<path d="M40.5157 49.7211C50.6864 51.1582 57.8 54.5962 57.8 59.6571C57.8 66.474 45.9142 72 29 72C12.0858 72 0.199997 66.474 0.199997 59.6571C0.199997 54.5962 7.31287 51.1582 17.4829 49.7211L18.8919 52.1201C11.2268 53.1835 5.96 55.4184 5.96 58.0119C5.96 61.6479 16.2754 64.5948 29 64.5948C41.7246 64.5948 52.04 61.6479 52.04 58.0119C52.0407 55.4271 46.8085 53.1944 39.1196 52.1266C39.584 51.3245 40.0513 50.5239 40.5164 49.7211H40.5157Z" fill="white"/>
</svg>
